<svg id="Layer_1" data-name="Layer 1" xmlns="http://www.w3.org/2000/svg" viewBox="0 0 1083 520"><defs><style>.cls-1,.cls-9{fill:#fff;}.cls-2{fill:#ccc;}.cls-3,.cls-5,.cls-8{fill:none;}.cls-3,.cls-5{stroke:#ccc;}.cls-3,.cls-8,.cls-9{stroke-miterlimit:10;}.cls-3,.cls-5,.cls-8,.cls-9{stroke-width:10px;}.cls-4{fill:#a933ff;}.cls-5{stroke-linecap:round;stroke-linejoin:round;}.cls-6{opacity:0.45;}.cls-7{opacity:0.1;}.cls-8,.cls-9{stroke:#a933ff;}</style></defs><title>dynamic</title><rect class="cls-1" x="5" y="121" width="533" height="393" rx="35.25" ry="35.25"/><path class="cls-2" d="M502.75,126A30.28,30.28,0,0,1,533,156.25v322.5A30.28,30.28,0,0,1,502.75,509H40.25A30.28,30.28,0,0,1,10,478.75V156.25A30.28,30.28,0,0,1,40.25,126h462.5m0-10H40.25A40.37,40.37,0,0,0,0,156.25v322.5A40.37,40.37,0,0,0,40.25,519h462.5A40.37,40.37,0,0,0,543,478.75V156.25A40.37,40.37,0,0,0,502.75,116Z"/><line class="cls-3" y1="159.36" x2="543" y2="159.36"/><circle class="cls-2" cx="38.91" cy="140.66" r="6.8"/><circle class="cls-2" cx="58.46" cy="140.66" r="6.8"/><circle class="cls-2" cx="78.02" cy="140.66" r="6.8"/><rect class="cls-2" x="160.97" y="182.32" width="220.2" height="37.41"/><rect class="cls-2" x="160.97" y="242.68" width="95.22" height="9.35"/><rect class="cls-2" x="160.97" y="257.99" width="86.72" height="9.35"/><rect class="cls-2" x="160.97" y="273.29" width="95.22" height="9.35"/><rect class="cls-2" x="160.97" y="288.59" width="86.72" height="9.35"/><rect class="cls-2" x="160.97" y="303.9" width="95.22" height="9.35"/><rect class="cls-2" x="160.97" y="319.2" width="93.52" height="9.35"/><rect class="cls-2" x="160.97" y="334.5" width="90.12" height="9.35"/><rect class="cls-2" x="160.97" y="349.81" width="95.22" height="9.35"/><rect class="cls-2" x="160.97" y="365.11" width="221.05" height="9.35"/><rect class="cls-2" x="160.97" y="380.42" width="198.95" height="9.35"/><rect class="cls-2" x="160.97" y="395.72" width="213.4" height="9.35"/><rect class="cls-2" x="160.97" y="411.02" width="206.6" height="9.35"/><rect class="cls-2" x="211.97" y="445.02" width="156.03" height="9.35"/><rect class="cls-2" x="211.97" y="458.52" width="147.03" height="9.35"/><rect class="cls-2" x="211.97" y="472.02" width="153.03" height="9.35"/><rect class="cls-2" x="271.5" y="242.68" width="110.53" height="110.53"/><path class="cls-4" d="M370,439a2,2,0,0,1,2,2v45a2,2,0,0,1-2,2H173a2,2,0,0,1-2-2V441a2,2,0,0,1,2-2H370m0-10H173a12,12,0,0,0-12,12v45a12,12,0,0,0,12,12H370a12,12,0,0,0,12-12V441a12,12,0,0,0-12-12Z"/><polygon class="cls-4" points="204 460.81 197.05 461.79 203.65 446.59 185.38 466.35 192.33 465.38 185.74 480.57 204 460.81"/><rect class="cls-1" x="870.86" y="133.94" width="207.14" height="350.06" rx="35.25" ry="35.25"/><path class="cls-2" d="M1042.75,138.94A30.28,30.28,0,0,1,1073,169.19V448.75A30.28,30.28,0,0,1,1042.75,479H906.11a30.28,30.28,0,0,1-30.25-30.25V169.19a30.28,30.28,0,0,1,30.25-30.25h136.64m0-10H906.11a40.37,40.37,0,0,0-40.25,40.25V448.75A40.37,40.37,0,0,0,906.11,489h136.64A40.37,40.37,0,0,0,1083,448.75V169.19a40.37,40.37,0,0,0-40.25-40.25Z"/><line class="cls-3" x1="865.86" y1="171.75" x2="1083" y2="171.75"/><line class="cls-3" x1="865.86" y1="436.78" x2="1083" y2="436.78"/><circle class="cls-3" cx="974.43" cy="461.51" r="14.2"/><line class="cls-5" x1="935.95" y1="152.18" x2="1012.91" y2="152.18"/><rect class="cls-2" x="930.53" y="385.82" width="115.83" height="6.94"/><rect class="cls-2" x="930.53" y="395.85" width="109.15" height="6.94"/><rect class="cls-2" x="930.53" y="405.87" width="113.61" height="6.94"/><path class="cls-4" d="M1044.76,380.93a5,5,0,0,1,5,5v27.23a5,5,0,0,1-5,5H904.69a5,5,0,0,1-5-5V385.93a5,5,0,0,1,5-5h140.07m0-7H904.69a12,12,0,0,0-12,12v27.23a12,12,0,0,0,12,12h140.07a12,12,0,0,0,12-12V385.93a12,12,0,0,0-12-12Z"/><polygon class="cls-4" points="924.61 397.55 919.45 398.27 924.35 386.99 910.79 401.66 915.95 400.93 911.06 412.22 924.61 397.55"/><rect class="cls-2" x="892.67" y="184.65" width="163.48" height="27.77"/><rect class="cls-2" x="892.67" y="224.47" width="70.69" height="6.94"/><rect class="cls-2" x="892.67" y="235.83" width="64.38" height="6.94"/><rect class="cls-2" x="892.67" y="247.19" width="70.69" height="6.94"/><rect class="cls-2" x="892.67" y="258.55" width="64.38" height="6.94"/><rect class="cls-2" x="892.67" y="269.92" width="70.69" height="6.94"/><rect class="cls-2" x="892.67" y="281.28" width="69.43" height="6.94"/><rect class="cls-2" x="892.67" y="292.64" width="66.91" height="6.94"/><rect class="cls-2" x="892.67" y="304" width="70.69" height="6.94"/><rect class="cls-2" x="892.67" y="315.36" width="164.11" height="6.94"/><rect class="cls-2" x="892.67" y="326.72" width="147.7" height="6.94"/><rect class="cls-2" x="892.67" y="338.08" width="158.43" height="6.94"/><rect class="cls-2" x="892.67" y="361.08" width="158.43" height="6.94"/><rect class="cls-2" x="892.67" y="349.45" width="153.38" height="6.94"/><rect class="cls-2" x="974.73" y="224.47" width="82.06" height="82.06"/><rect class="cls-1" x="593" y="179" width="211" height="59" rx="7" ry="7"/><path class="cls-4" d="M797,184a2,2,0,0,1,2,2v45a2,2,0,0,1-2,2H600a2,2,0,0,1-2-2V186a2,2,0,0,1,2-2H797m0-10H600a12,12,0,0,0-12,12v45a12,12,0,0,0,12,12H797a12,12,0,0,0,12-12V186a12,12,0,0,0-12-12Z"/><rect class="cls-2" x="638.97" y="190.02" width="156.03" height="9.35"/><rect class="cls-2" x="638.97" y="203.52" width="147.03" height="9.35"/><rect class="cls-2" x="638.97" y="217.02" width="153.03" height="9.35"/><polygon class="cls-4" points="631 205.81 624.05 206.79 630.64 191.59 612.38 211.35 619.33 210.38 612.74 225.57 631 205.81"/><g class="cls-6"><rect class="cls-1" x="593" y="92" width="211" height="59" rx="7" ry="7"/><path class="cls-4" d="M797,97a2,2,0,0,1,2,2v45a2,2,0,0,1-2,2H600a2,2,0,0,1-2-2V99a2,2,0,0,1,2-2H797m0-10H600a12,12,0,0,0-12,12v45a12,12,0,0,0,12,12H797a12,12,0,0,0,12-12V99a12,12,0,0,0-12-12Z"/><rect class="cls-2" x="638.97" y="103.02" width="156.03" height="9.35"/><rect class="cls-2" x="638.97" y="116.52" width="147.03" height="9.35"/><rect class="cls-2" x="638.97" y="130.02" width="153.03" height="9.35"/><polygon class="cls-4" points="631 118.81 624.05 119.79 630.64 104.59 612.38 124.35 619.33 123.38 612.74 138.57 631 118.81"/></g><g class="cls-7"><rect class="cls-1" x="593" y="5" width="211" height="59" rx="7" ry="7"/><path class="cls-4" d="M797,10a2,2,0,0,1,2,2V57a2,2,0,0,1-2,2H600a2,2,0,0,1-2-2V12a2,2,0,0,1,2-2H797m0-10H600a12,12,0,0,0-12,12V57a12,12,0,0,0,12,12H797a12,12,0,0,0,12-12V12A12,12,0,0,0,797,0Z"/><rect class="cls-2" x="638.97" y="16.02" width="156.03" height="9.35"/><rect class="cls-2" x="638.97" y="29.52" width="147.03" height="9.35"/><rect class="cls-2" x="638.97" y="43.02" width="153.03" height="9.35"/><polygon class="cls-4" points="631 31.81 624.05 32.79 630.64 17.59 612.38 37.35 619.33 36.38 612.74 51.58 631 31.81"/></g><path class="cls-8" d="M865.86,400H730.34A30.34,30.34,0,0,1,700,369.66V295l-.88,137.73a31.19,31.19,0,0,1-31.39,31.07L543,463"/><circle class="cls-9" cx="699" cy="314" r="53"/><polygon class="cls-4" points="718.18 307.79 703.63 309.83 717.44 278 679.2 319.38 693.76 317.34 679.94 349.16 718.18 307.79"/></svg>