<svg id="Layer_1" data-name="Layer 1" xmlns="http://www.w3.org/2000/svg" viewBox="0 0 380 474"><defs><style>.cls-1,.cls-2,.cls-4,.cls-5{fill:#fff;}.cls-1,.cls-4,.cls-5{stroke:#a933ff;}.cls-1{stroke-miterlimit:10;}.cls-1,.cls-4{stroke-width:10px;}.cls-3{fill:#a933ff;}.cls-4,.cls-5{stroke-linejoin:round;}.cls-5{stroke-width:6px;}</style></defs><title>liftoff</title><polyline class="cls-1" points="230 271 230 360 156 360 156 271"/><polygon class="cls-2" points="158.05 266 164.79 242 221.21 242 227.95 266 158.05 266"/><path class="cls-3" d="M217.42,247l3.93,14h-56.7l3.93-14h48.84M225,237H161l-9.54,34h83.09L225,237Z"/><rect class="cls-2" y="443" width="380" height="31"/><line class="cls-4" x1="174" y1="271" x2="174" y2="338"/><line class="cls-4" x1="192" y1="271" x2="192" y2="338"/><line class="cls-4" x1="211" y1="271" x2="211" y2="338"/><line class="cls-4" y1="443" x2="380" y2="443"/><polygon class="cls-4" points="227 230 270 303 270 227 227 154 227 230"/><polygon class="cls-4" points="159 230 116 303 116 227 159 154 159 230"/><path class="cls-2" d="M103.93,442a31.93,31.93,0,0,1-.51-63.86,5,5,0,0,0,4.92-5,57.41,57.41,0,0,1,105.11-32,5,5,0,0,0,6.89,1.4,38.84,38.84,0,0,1,60,30.9,5,5,0,0,0,4.55,4.78A31.93,31.93,0,0,1,282.07,442Z"/><path class="cls-3" d="M165.75,320.73A52.38,52.38,0,0,1,209.3,344a10,10,0,0,0,13.78,2.79,33.84,33.84,0,0,1,52.31,26.92,10,10,0,0,0,9.09,9.55A26.93,26.93,0,0,1,282.07,437H103.93a26.93,26.93,0,0,1-.43-53.86,10,10,0,0,0,9.84-10v0a52.47,52.47,0,0,1,52.41-52.37m0-10a62.41,62.41,0,0,0-62.41,62.41h0a36.93,36.93,0,0,0,.59,73.85H282.07a36.93,36.93,0,0,0,3.32-73.71,43.84,43.84,0,0,0-67.78-34.88,62.34,62.34,0,0,0-51.86-27.68Z"/><path class="cls-2" d="M163.56,241C151.74,217.36,145,182.72,145,145.28c0-56.92,36.2-105.48,48-119.8,11.79,14.33,48,63,48,119.8,0,37.43-6.74,72.08-18.56,95.72Z"/><path class="cls-3" d="M193,33.48c14,18.05,43,61.63,43,111.8,0,34.7-6.19,68-16.7,90.72H166.7c-10.51-22.7-16.7-56-16.7-90.72,0-34,13.55-64.82,24.92-84.71A236,236,0,0,1,193,33.48m0-15.67s-53,57.07-53,127.47c0,41,8,77.4,20.51,100.72h65C238,222.68,246,186.24,246,145.28c0-70.4-53-127.47-53-127.47Z"/><polygon class="cls-5" points="192 167.01 170.37 182.06 178 156.84 157 140.92 183.35 140.38 192 115.49 200.65 140.38 227 140.92 206 156.84 213.63 182.06 192 167.01"/></svg>