<svg id="Layer_1" data-name="Layer 1" xmlns="http://www.w3.org/2000/svg" viewBox="0 0 327.07 267.55"><defs><style>.cls-1{fill:#fff;}.cls-2{fill:#a933ff;}</style></defs><title>p-heart</title><path class="cls-1" d="M163.29,262.09C26.83,174.75,6.37,122,6.37,98.18,6.37,46.8,45,5,92.55,5c26,0,50.27,12.48,66.74,34.25l4,5.25,4-5.24C183.84,17.49,208.35,5,234.5,5c47.87,0,86.82,41.8,86.82,93.18C321.32,122.26,300.71,175.46,163.29,262.09Z"/><path class="cls-2" d="M234.5,10c45.12,0,81.82,39.56,81.82,88.18,0,17.54-11.76,39.75-34,64.21-26.12,28.71-66.13,60.24-119,93.77C111.07,222.52,71.46,191,45.51,162.4,23.18,137.8,11.37,115.59,11.37,98.18,11.37,49.56,47.79,10,92.55,10c24.37,0,47.24,11.76,62.75,32.27l7.95,10.51,8-10.48C186.86,21.77,209.92,10,234.5,10m0-10c-28.74,0-54.39,14.13-71.23,36.23C146.56,14.13,121.09,0,92.55,0,42.19,0,1.37,44,1.37,98.18c0,37.78,44,94.8,161.9,169.83C283,193,326.32,136,326.32,98.18,326.32,44,285.21,0,234.5,0Z"/></svg>