<svg id="Layer_1" data-name="Layer 1" xmlns="http://www.w3.org/2000/svg" viewBox="0 0 322 534"><defs><style>.cls-1{fill:#fff;}.cls-2{fill:#a933ff;}.cls-3,.cls-4,.cls-5{fill:none;stroke:#a933ff;stroke-width:10px;}.cls-3,.cls-5{stroke-linejoin:round;}.cls-4{stroke-miterlimit:10;}.cls-5{stroke-linecap:round;}</style></defs><title>phone</title><rect class="cls-1" x="5" y="5.05" width="312" height="523.95" rx="35.25" ry="35.25"/><path class="cls-2" d="M281.75,10.05A30.28,30.28,0,0,1,312,40.3V493.75A30.28,30.28,0,0,1,281.75,524H40.25A30.28,30.28,0,0,1,10,493.75V40.3A30.28,30.28,0,0,1,40.25,10.05h241.5m0-10H40.25A40.37,40.37,0,0,0,0,40.3V493.75A40.37,40.37,0,0,0,40.25,534h241.5A40.37,40.37,0,0,0,322,493.75V40.3A40.37,40.37,0,0,0,281.75.05Z"/><polygon class="cls-3" points="161 322.98 94.44 369.3 117.92 291.68 53.3 242.69 134.38 241.04 161 164.45 187.62 241.04 268.7 242.69 204.08 291.68 227.56 369.3 161 322.98"/><line class="cls-4" y1="51.68" x2="322" y2="51.68"/><line class="cls-4" y1="456.56" x2="322" y2="456.56"/><circle class="cls-4" cx="161" cy="493.24" r="21.06"/><line class="cls-5" x1="103.94" y1="28.58" x2="218.06" y2="28.58"/></svg>