<svg id="Layer_1" data-name="Layer 1" xmlns="http://www.w3.org/2000/svg" viewBox="0 0 482 311"><defs><style>.cls-1,.cls-3,.cls-4,.cls-5{fill:#fff;}.cls-1,.cls-4,.cls-5{stroke:#a933ff;}.cls-1{stroke-miterlimit:10;}.cls-1,.cls-4{stroke-width:10px;}.cls-2{fill:#a933ff;}.cls-4,.cls-5{stroke-linejoin:round;}.cls-5{stroke-width:6px;}</style></defs><title>rocket</title><path class="cls-1" d="M245.78,182.9S198.31,223.25,121.18,228,12,193.58,12,193.58s11.53,58.34,86.63,74.76c75.95,16.61,140-4.75,163.77-14.24s39.16-21.36,39.16-21.36"/><path class="cls-2" d="M296.48,209.26c-.79.7-1.46,1.29-2.2,1.88s-1.45,1.17-2.18,1.73c-1.46,1.14-2.94,2.23-4.43,3.31q-4.51,3.15-9.21,6a167.37,167.37,0,0,1-19.47,10l-2.5,1.11-2.54,1c-1.69.67-3.37,1.39-5.08,2-3.44,1.22-6.83,2.54-10.32,3.58a199.63,199.63,0,0,1-21.1,5.53c-3.55.68-7.08,1.35-10.63,1.94s-7.1,1.13-10.67,1.56c-7.12,1-14.27,1.66-21.41,2.24s-14.31.86-21.46,1-14.31,0-21.43-.46a372.5,372.5,0,0,0,42.46-4.27,400.92,400.92,0,0,0,41.56-8.75,192,192,0,0,0,19.89-6.61c3.27-1.21,6.44-2.69,9.65-4.06,1.59-.72,3.15-1.5,4.72-2.25l2.35-1.13,2.31-1.22c6.19-3.19,12.24-6.65,18.13-10.33,3-1.81,5.86-3.71,8.75-5.62,1.41-1,2.88-1.91,4.27-2.92q1.06-.74,2.08-1.49l2-1.44Z"/><polygon class="cls-3" points="242.32 177.77 269.88 162.47 317.98 211.06 302.41 238.46 242.32 177.77"/><path class="cls-2" d="M269,168.68l42.77,43.2-10.44,18.37-50.81-51.32L269,168.68m1.77-12.42L234.12,176.6l69.37,70.07,20.71-36.44-53.43-54Z"/><polygon class="cls-4" points="331.77 206.07 306.11 303.29 370.2 239.83 395.87 142.62 331.77 206.07"/><polygon class="cls-4" points="275 148.73 177.53 173.41 241.63 109.96 339.09 85.28 275 148.73"/><path class="cls-3" d="M268.46,162c10-30,33.78-64.94,65.64-96.48C383.15,17,456.27,7.39,476.9,5.62c-2,20.62-12.35,93.7-61.34,142.2-31.86,31.54-67.07,55-97.13,64.67Z"/><path class="cls-2" d="M471.27,11.19C468.1,36.92,456,100.73,412,144.26c-29.83,29.54-63.85,52.51-92.26,62.49l-45.58-46c10.26-28.31,33.58-62.09,63.41-91.62,29-28.68,66.66-43.14,93.17-50.22a280.81,280.81,0,0,1,40.48-7.67M482.34.24S390,3.19,330.58,62C296,96.17,272,133.37,262.77,163.36L317,218.16c30.09-8.95,67.53-32.6,102.07-66.79C478.46,92.59,482.34.24,482.34.24Z"/><polygon class="cls-5" points="355.67 123.97 324.92 118.29 352.56 103.67 348.46 72.67 370.91 94.44 399.12 80.95 385.36 109.03 406.9 131.7 375.94 127.28 361.04 154.78 355.67 123.97"/></svg>