<svg id="Layer_1" data-name="Layer 1" xmlns="http://www.w3.org/2000/svg" viewBox="0 0 638 474"><defs><style>.cls-1,.cls-3{fill:#fff;}.cls-2{fill:#a933ff;}.cls-3{stroke:#a933ff;stroke-linejoin:round;stroke-width:10px;}</style></defs><title>supercharge</title><path class="cls-1" d="M93.5,469A88.6,88.6,0,0,1,5,380.5c0-48,39.06-87.72,87.08-88.48A5,5,0,0,0,97,287c0-84.38,68.64-153,153-153a152.9,152.9,0,0,1,127.13,67.86,5,5,0,0,0,6.89,1.4A106,106,0,0,1,547.9,287.59a5,5,0,0,0,4.55,4.78A88.5,88.5,0,0,1,544.5,469Z"/><path class="cls-2" d="M250,139a147.9,147.9,0,0,1,123,65.64,10,10,0,0,0,13.78,2.79,101,101,0,0,1,156.14,80.36,10,10,0,0,0,9.09,9.55A83.5,83.5,0,0,1,544.5,464H93.5A83.77,83.77,0,0,1,10,380.5c0-45.31,36.86-82.76,82.16-83.48A10,10,0,0,0,102,287V287A148,148,0,0,1,250,139m0-10A158,158,0,0,0,92,287v0c-50.74.81-92,42.56-92,93.48H0C0,431.93,42.07,474,93.5,474h451c51.42,0,93.5-42.07,93.5-93.5h0c0-48.6-37.57-88.83-85.1-93.12a111,111,0,0,0-171.61-88.31A157.84,157.84,0,0,0,250,129Z"/><rect class="cls-3" x="233" y="79" width="188" height="241"/><line class="cls-3" x1="327" y1="149" x2="327" y2="310"/><line class="cls-3" x1="269" y1="189" x2="269" y2="266"/><line class="cls-3" x1="385" y1="189" x2="385" y2="293"/><polygon class="cls-3" points="327 148.75 268.9 189.17 289.4 121.43 233 78.67 303.76 77.23 327 10.38 350.24 77.23 421 78.67 364.6 121.43 385.1 189.17 327 148.75"/><path class="cls-3" d="M430,333a54,54,0,0,0-97.66-31.76A79,79,0,0,0,181,333"/></svg>