<svg id="Layer_1" data-name="Layer 1" xmlns="http://www.w3.org/2000/svg" viewBox="0 0 638 474"><defs><style>.cls-1{fill:#fff;}.cls-2{fill:#a933ff;}.cls-3,.cls-4{fill:none;stroke:#a933ff;stroke-width:10px;}.cls-3{stroke-miterlimit:10;}.cls-4{stroke-linejoin:round;}</style></defs><title>web</title><rect class="cls-1" x="5" y="5" width="628" height="464" rx="35.25" ry="35.25"/><path class="cls-2" d="M597.75,10A30.28,30.28,0,0,1,628,40.25v393.5A30.28,30.28,0,0,1,597.75,464H40.25A30.28,30.28,0,0,1,10,433.75V40.25A30.28,30.28,0,0,1,40.25,10h557.5m0-10H40.25A40.37,40.37,0,0,0,0,40.25v393.5A40.37,40.37,0,0,0,40.25,474h557.5A40.37,40.37,0,0,0,638,433.75V40.25A40.37,40.37,0,0,0,597.75,0Z"/><line class="cls-3" y1="51" x2="638" y2="51"/><circle class="cls-2" cx="34" cy="29" r="8"/><circle class="cls-2" cx="57" cy="29" r="8"/><circle class="cls-2" cx="80" cy="29" r="8"/><polygon class="cls-4" points="319 341.37 221.02 409.55 255.59 295.3 160.47 223.18 279.81 220.75 319 108 358.19 220.75 477.53 223.18 382.41 295.3 416.98 409.55 319 341.37"/></svg>